<?xml version="1.0" encoding="utf-8"?>
<svg class="topography-shape js-shape" width="1200px" height="580px" viewBox="0 0 1200 580" version="1.1" xmlns="http://www.w3.org/2000/svg">
  <path d="M734.567 34.372c-28.692 61.724-23.266 100.422 16.275 116.094 59.313 23.508 200.347 32.911 259.299 83.906 58.95 50.994 238.697 11.572 269.438-75.95C1310.32 70.9 1365.669-64 1073.808-64c-194.576 0-307.654 32.79-339.24 98.372h-.001z" fill="#FFFA72" fill-rule="nonzero"/>
  <path d="M734.567 34.372c-28.692 61.724-23.266 100.422 16.275 116.094 59.313 23.508 200.347 32.911 259.299 83.906 58.95 50.994 238.697 11.572 269.438-75.95C1310.32 70.9 1365.669-64 1073.808-64c-194.576 0-307.654 32.79-339.24 98.372h-.001z" fill="#FFFA72" fill-rule="nonzero" transform="translate(-1800, 60) scale(2.8, 2.8) skewX(30) " style="position: relative; z-index: 0; fill: rgb(214, 242, 255);"/>
  <path d="M734.567 34.372c-28.692 61.724-23.266 100.422 16.275 116.094 59.313 23.508 200.347 32.911 259.299 83.906 58.95 50.994 238.697 11.572 269.438-75.95C1310.32 70.9 1365.669-64 1073.808-64c-194.576 0-307.654 32.79-339.24 98.372h-.001z" fill="#FFFA72" fill-rule="nonzero" transform="translate(-1650, 55) scale(2.65, 2.65) skewX(27.5) " style="position: relative; z-index: 1; fill: rgb(199, 225, 243);"/>
  <path d="M734.567 34.372c-28.692 61.724-23.266 100.422 16.275 116.094 59.313 23.508 200.347 32.911 259.299 83.906 58.95 50.994 238.697 11.572 269.438-75.95C1310.32 70.9 1365.669-64 1073.808-64c-194.576 0-307.654 32.79-339.24 98.372h-.001z" fill="#FFFA72" fill-rule="nonzero" transform="translate(-1500, 50) scale(2.5, 2.5) skewX(25) " style="position: relative; z-index: 2; fill: rgb(184, 207, 230);"/>
  <path d="M734.567 34.372c-28.692 61.724-23.266 100.422 16.275 116.094 59.313 23.508 200.347 32.911 259.299 83.906 58.95 50.994 238.697 11.572 269.438-75.95C1310.32 70.9 1365.669-64 1073.808-64c-194.576 0-307.654 32.79-339.24 98.372h-.001z" fill="#FFFA72" fill-rule="nonzero" transform="translate(-1350, 45) scale(2.3499999999999996, 2.3499999999999996) skewX(22.5) " style="position: relative; z-index: 3; fill: rgb(169, 190, 218);"/>
  <path d="M734.567 34.372c-28.692 61.724-23.266 100.422 16.275 116.094 59.313 23.508 200.347 32.911 259.299 83.906 58.95 50.994 238.697 11.572 269.438-75.95C1310.32 70.9 1365.669-64 1073.808-64c-194.576 0-307.654 32.79-339.24 98.372h-.001z" fill="#FFFA72" fill-rule="nonzero" transform="translate(-1200, 40) scale(2.2, 2.2) skewX(20) " style="position: relative; z-index: 4; fill: rgb(154, 173, 206);"/>
  <path d="M734.567 34.372c-28.692 61.724-23.266 100.422 16.275 116.094 59.313 23.508 200.347 32.911 259.299 83.906 58.95 50.994 238.697 11.572 269.438-75.95C1310.32 70.9 1365.669-64 1073.808-64c-194.576 0-307.654 32.79-339.24 98.372h-.001z" fill="#FFFA72" fill-rule="nonzero" transform="translate(-1050, 35) scale(2.05, 2.05) skewX(17.5) " style="position: relative; z-index: 5; fill: rgb(139, 155, 193);"/>
  <path d="M734.567 34.372c-28.692 61.724-23.266 100.422 16.275 116.094 59.313 23.508 200.347 32.911 259.299 83.906 58.95 50.994 238.697 11.572 269.438-75.95C1310.32 70.9 1365.669-64 1073.808-64c-194.576 0-307.654 32.79-339.24 98.372h-.001z" fill="#FFFA72" fill-rule="nonzero" transform="translate(-900, 30) scale(1.9, 1.9) skewX(15) " style="position: relative; z-index: 6; fill: rgb(125, 138, 181);"/>
  <path d="M734.567 34.372c-28.692 61.724-23.266 100.422 16.275 116.094 59.313 23.508 200.347 32.911 259.299 83.906 58.95 50.994 238.697 11.572 269.438-75.95C1310.32 70.9 1365.669-64 1073.808-64c-194.576 0-307.654 32.79-339.24 98.372h-.001z" fill="#FFFA72" fill-rule="nonzero" transform="translate(-750, 25) scale(1.75, 1.75) skewX(12.5) " style="position: relative; z-index: 7; fill: rgb(110, 121, 169);"/>
  <path d="M734.567 34.372c-28.692 61.724-23.266 100.422 16.275 116.094 59.313 23.508 200.347 32.911 259.299 83.906 58.95 50.994 238.697 11.572 269.438-75.95C1310.32 70.9 1365.669-64 1073.808-64c-194.576 0-307.654 32.79-339.24 98.372h-.001z" fill="#FFFA72" fill-rule="nonzero" transform="translate(-600, 20) scale(1.6, 1.6) skewX(10) " style="position: relative; z-index: 8; fill: rgb(95, 103, 156);"/>
  <path d="M734.567 34.372c-28.692 61.724-23.266 100.422 16.275 116.094 59.313 23.508 200.347 32.911 259.299 83.906 58.95 50.994 238.697 11.572 269.438-75.95C1310.32 70.9 1365.669-64 1073.808-64c-194.576 0-307.654 32.79-339.24 98.372h-.001z" fill="#FFFA72" fill-rule="nonzero" transform="translate(-450, 15) scale(1.45, 1.45) skewX(7.5) " style="position: relative; z-index: 9; fill: rgb(80, 86, 144);"/>
  <path d="M734.567 34.372c-28.692 61.724-23.266 100.422 16.275 116.094 59.313 23.508 200.347 32.911 259.299 83.906 58.95 50.994 238.697 11.572 269.438-75.95C1310.32 70.9 1365.669-64 1073.808-64c-194.576 0-307.654 32.79-339.24 98.372h-.001z" fill="#FFFA72" fill-rule="nonzero" transform="translate(-300, 10) scale(1.3, 1.3) skewX(5) " style="position: relative; z-index: 10; fill: rgb(65, 69, 132);"/>
  <path d="M734.567 34.372c-28.692 61.724-23.266 100.422 16.275 116.094 59.313 23.508 200.347 32.911 259.299 83.906 58.95 50.994 238.697 11.572 269.438-75.95C1310.32 70.9 1365.669-64 1073.808-64c-194.576 0-307.654 32.79-339.24 98.372h-.001z" fill="#FFFA72" fill-rule="nonzero" transform="translate(-150, 5) scale(1.15, 1.15) skewX(2.5) " style="position: relative; z-index: 11; fill: rgb(50, 51, 119);"/>
  <path d="M -292.994 605.09 C -313.947 540.202 -309.982 499.519 -281.107 483.048 C -237.798 458.337 -134.804 448.457 -91.751 394.848 C -48.707 341.239 82.555 382.681 105.006 474.685 C 127.454 566.687 167.868 708.502 -45.258 708.502 C -187.347 708.502 -269.929 674.027 -292.992 605.09 L -292.994 605.09 Z" fill="#FFFA72" fill-rule="nonzero" style="transform-box: fill-box; transform-origin: 50% 50%;" transform="matrix(-1, 0, 0, -1, -0.000001, -0.000016)"/>
  <path d="M -845.052 968.329 C -830.858 786.641 -774.081 672.748 -674.726 626.616 C -525.698 557.424 -226.219 529.74 -45.481 379.643 C 135.254 229.543 456.254 345.577 415.784 603.196 C 375.324 860.813 329.244 1257.877 -267.533 1257.877 C -665.387 1257.877 -857.892 1161.371 -845.052 968.329 Z" fill="#FFFA72" fill-rule="nonzero" style="position: relative; z-index: 0; fill: rgb(214, 242, 255); transform-box: fill-box; transform-origin: 50% 50%;" transform="matrix(-1, 0, 0, -1, 0.000006, 0.000051)"/>
  <path d="M -785.895 938.056 C -779.237 766.109 -729.751 658.298 -637.439 614.644 C -498.98 549.155 -216.576 522.964 -51.127 380.908 C 114.324 238.852 422.451 348.663 393.775 592.477 C 365.097 836.3 336.308 1212.09 -228.494 1212.09 C -605.035 1212.09 -790.831 1120.742 -785.889 938.056 L -785.895 938.056 Z" fill="#FFFA72" fill-rule="nonzero" style="position: relative; z-index: 1; fill: rgb(199, 225, 243); transform-box: fill-box; transform-origin: 50% 50%;" transform="matrix(-1, 0, 0, -1, 0.000002, -0.000023)"/>
  <path d="M -729.583 907.79 C -729.416 745.569 -686.562 643.865 -601.039 602.68 C -472.735 540.9 -207.256 516.189 -56.218 382.171 C 94.815 248.161 389.41 351.765 371.024 581.775 C 352.639 811.791 338.843 1166.313 -193.995 1166.313 C -549.213 1166.313 -727.738 1080.14 -729.576 907.79 L -729.583 907.79 Z" fill="#FFFA72" fill-rule="nonzero" style="position: relative; z-index: 2; fill: rgb(184, 207, 230); transform-box: fill-box; transform-origin: 50% 50%;" transform="matrix(-1, 0, 0, -1, 0.000003, -0.000041)"/>
  <path d="M -675.606 877.514 C -680.966 725.038 -644.146 629.44 -565.157 590.714 C -446.659 532.646 -197.941 509.42 -60.529 383.444 C 76.891 257.468 357.328 354.855 347.873 571.071 C 338.409 787.283 337.507 1120.528 -163.362 1120.528 C -497.269 1120.528 -668.013 1039.524 -675.604 877.514 L -675.606 877.514 Z" fill="#FFFA72" fill-rule="nonzero" style="position: relative; z-index: 3; fill: rgb(169, 190, 218); transform-box: fill-box; transform-origin: 50% 50%;" transform="matrix(-1, 0, 0, -1, -0.000007, 0.000115)"/>
  <path d="M -623.474 847.247 C -633.481 704.497 -602.141 615.004 -529.448 578.762 C -420.41 524.396 -188.328 502.65 -63.798 384.708 C 60.727 266.78 326.448 357.951 324.659 560.361 C 322.87 762.769 332.912 1074.755 -135.987 1074.755 C -448.589 1074.755 -611.079 998.923 -623.474 847.247 Z" fill="#FFFA72" fill-rule="nonzero" style="position: relative; z-index: 4; fill: rgb(154, 173, 206); transform-box: fill-box; transform-origin: 50% 50%;" transform="matrix(-1, 0, 0, -1, 0.000002, 0.000108)"/>
  <path d="M -574.781 816.98 C -588.598 683.966 -562.205 600.576 -495.614 566.795 C -395.728 516.132 -180.16 495.871 -67.833 385.98 C 44.481 276.086 294.961 361.041 299.673 549.658 C 304.382 738.262 323.563 1028.97 -113.362 1028.97 C -404.642 1028.97 -558.45 958.312 -574.781 816.98 Z" fill="#FFFA72" fill-rule="nonzero" style="position: relative; z-index: 5; fill: rgb(139, 155, 193); transform-box: fill-box; transform-origin: 50% 50%;" transform="matrix(-1, 0, 0, -1, 0.000002, -0.000059)"/>
  <path d="M -529.277 786.716 C -546.137 663.429 -524.227 586.144 -463.542 554.831 C -372.5 507.882 -173.325 489.103 -72.567 387.248 C 28.184 285.397 262.924 364.135 273.041 538.942 C 283.156 713.753 309.793 983.194 -95.164 983.194 C -365.133 983.194 -509.837 917.701 -529.277 786.716 Z" fill="#FFFA72" fill-rule="nonzero" style="position: relative; z-index: 6; fill: rgb(125, 138, 181); transform-box: fill-box; transform-origin: 50% 50%;" transform="matrix(-1, 0, 0, -1, 0, 0.000081)"/>
  <path d="M -485.922 756.449 C -505.103 642.896 -487.198 571.7 -432.228 542.874 C -349.77 499.626 -166.878 482.33 -77.091 388.518 C 12.695 294.703 231.235 367.227 245.725 528.239 C 260.213 689.245 292.722 937.41 -80.258 937.41 C -328.921 937.41 -464.143 877.091 -485.922 756.449 Z" fill="#FFFA72" fill-rule="nonzero" style="position: relative; z-index: 7; fill: rgb(110, 121, 169); transform-box: fill-box; transform-origin: 50% 50%;" transform="matrix(-1, 0, 0, -1, 0, -0.000007)"/>
  <path d="M -444.378 726.174 C -465.178 622.36 -450.867 557.27 -401.443 530.912 C -327.296 491.376 -160.571 475.561 -81.187 389.782 C -1.8 304.016 200.094 370.319 217.982 517.532 C 235.866 664.742 272.741 891.63 -68.267 891.63 C -295.616 891.63 -420.981 836.492 -444.378 726.174 Z" fill="#FFFA72" fill-rule="nonzero" style="position: relative; z-index: 8; fill: rgb(95, 103, 156); transform-box: fill-box; transform-origin: 50% 50%;" transform="matrix(-1, 0, 0, -1, -0.000003, 0.000007)"/>
  <path d="M -404.431 695.907 C -426.211 601.816 -415.067 542.835 -371.015 518.947 C -304.931 483.112 -154.282 468.786 -84.756 391.052 C -15.22 313.317 169.609 373.417 189.957 506.825 C 210.309 640.232 250.117 845.849 -58.932 845.849 C -264.965 845.849 -380.123 795.869 -404.431 695.907 Z" fill="#FFFA72" fill-rule="nonzero" style="position: relative; z-index: 9; fill: rgb(80, 86, 144); transform-box: fill-box; transform-origin: 50% 50%;" transform="matrix(-1, 0, 0, -1, 0.000001, 0.000065)"/>
  <path d="M -365.957 665.624 C -388.071 581.274 -379.708 528.388 -340.869 506.967 C -282.611 474.844 -147.937 461.991 -87.739 392.313 C -27.539 322.626 139.826 376.489 161.741 496.101 C 183.655 615.71 224.991 800.065 -52.071 800.065 C -236.794 800.065 -341.422 755.251 -365.957 665.624 Z" fill="#FFFA72" fill-rule="nonzero" style="position: relative; z-index: 10; fill: rgb(65, 69, 132); transform-box: fill-box; transform-origin: 50% 50%;" transform="matrix(-1, 0, 0, -1, -0.000003, -0.000057)"/>
  <path d="M -328.842 635.367 C -350.674 560.751 -344.691 513.967 -310.916 495.024 C -260.24 466.596 -141.459 455.238 -90.075 393.587 C -38.704 331.94 110.806 379.6 133.408 485.405 C 156.012 591.216 197.553 754.284 -47.555 754.284 C -210.955 754.284 -304.719 714.645 -328.842 635.367 Z" fill="#FFFA72" fill-rule="nonzero" style="position: relative; z-index: 11; fill: rgb(50, 51, 119); transform-box: fill-box; transform-origin: 50% 50%;" transform="matrix(-1, 0, 0, -1, -0.000001, 0.000082)"/>
</svg>